<svg xmlns="http://www.w3.org/2000/svg" with="45" height="45" viewBox="0 0 200 200" fill="#FFF" stroke-width="1">
<path fill-rule="evenodd" d="M80.7,45.6c3.5,0,7.8,0.7,12.7,2.2c5,1.5,8.3,2.2,10,2.2c2.1,0,5.6-0.8,10.3-2.5
c4.8-1.6,8.9-2.5,12.4-2.5c5.8,0,10.9,1.5,15.4,4.6c2.5,1.8,5,4.2,7.5,7.2c-3.8,3.2-6.5,6-8.2,8.5c-3.1,4.5-4.7,9.5-4.7,14.9
c0,6,1.7,11.3,5,16.1c3.3,4.8,7.1,7.8,11.4,9.1c-1.8,5.8-4.7,11.8-8.9,18.1c-6.2,9.4-12.4,14.1-18.6,14.1c-2.4,0-5.8-0.8-10.1-2.3
c-4.3-1.5-7.9-2.3-10.8-2.3c-3,0-6.4,0.8-10.3,2.4c-3.9,1.6-7.1,2.5-9.5,2.5c-7.4,0-14.6-6.2-21.7-18.7
C55.6,106.9,52.1,94.8,52.1,83c0-11,2.7-20,8.1-26.9C65.6,49.1,72.5,45.6,80.7,45.6 M125,17.9c0.2,0.6,0.3,1.1,0.4,1.6
c0,0.5,0.1,0.9,0.1,1.4c0,3-0.7,6.3-2.1,9.8c-1.4,3.6-3.6,6.9-6.7,9.9c-2.6,2.6-5.2,4.3-7.8,5.2c-1.6,0.5-4.1,0.9-7.5,1.2
c0.1-7.1,1.9-13.3,5.6-18.5C110.6,23.4,116.6,19.8,125,17.9"/>
</svg>