<?xml version="1.0" encoding="UTF-8"?>
<!DOCTYPE svg PUBLIC "-//W3C//DTD SVG 1.1//EN" "http://www.w3.org/Graphics/SVG/1.1/DTD/svg11.dtd">
<svg xmlns="http://www.w3.org/2000/svg" version="1.1" width="513px" height="473px" style="shape-rendering:geometricPrecision; text-rendering:geometricPrecision; image-rendering:optimizeQuality; fill-rule:evenodd; clip-rule:evenodd" xmlns:xlink="http://www.w3.org/1999/xlink">
<g><path style="opacity:0.997" fill="#3a1d1d" d="M 512.5,184.5 C 512.5,196.5 512.5,208.5 512.5,220.5C 505.002,267.989 483.002,307.489 446.5,339C 391.216,383.375 327.882,405.209 256.5,404.5C 240.751,404.476 225.085,403.643 209.5,402C 175.101,425.523 140.767,449.023 106.5,472.5C 103.833,472.5 101.167,472.5 98.5,472.5C 94.7593,469.444 93.5927,465.444 95,460.5C 102.833,431.667 110.667,402.833 118.5,374C 86.5639,357.077 59.0639,334.577 36,306.5C -2.73332,253.636 -10.0667,196.636 14,135.5C 35.3356,91.1644 67.8356,57.6644 111.5,35C 177.465,1.75327 246.799,-7.9134 319.5,6C 374.75,16.537 422.25,41.3703 462,80.5C 489.825,109.816 506.658,144.483 512.5,184.5 Z"/></g>
</svg>
